<mxfile host="Electron" modified="2023-07-25T19:52:57.366Z" agent="Mozilla/5.0 (Windows NT 10.0; Win64; x64) AppleWebKit/537.36 (KHTML, like Gecko) draw.io/21.6.5 Chrome/114.0.5735.243 Electron/25.3.1 Safari/537.36" etag="O5bXwJNvIdMTVIfaYdA2" version="21.6.5" type="device">
  <diagram name="Página-1" id="nFLYcnp-unWdXeMjdf5J">
    <mxGraphModel dx="1727" dy="1023" grid="1" gridSize="10" guides="1" tooltips="1" connect="1" arrows="1" fold="1" page="0" pageScale="1" pageWidth="827" pageHeight="1169" math="0" shadow="0">
      <root>
        <mxCell id="0" />
        <mxCell id="1" parent="0" />
        <mxCell id="rCMdXfV7LYDpSBpJ9iVP-1" value="A Optus é uma empresa no ramo musical que deseja realizar o gerenciamento dos lançamentos de novos cds de seus artistas. Cada álbum lançado poderá conter mais de um estilo vinculado (ex.: Indie e Folk).&#xa;É importante que você crie também uma estratégia para que os usuários possuam acesso à plataforma.&#xa;Os usuários deverão conter nome, email, senha e o tipo de permissão (eles podem ser do tipo administrador ou comum).&#xa;&#xa;&#xa;Observações:&#xa;Os Artistas deverão possuir somente nome.&#xa;Estilos: nome.&#xa;Albuns: titulo, data de lançamento, localizacao, quantidade de minutos, se o álbum está ativo para visualização, a quem pertence (somente um artista por álbum) e quais os estilos vinculados.&#xa;&#xa;&#xa;&#xa;" style="text;whiteSpace=wrap;fontSize=14;" parent="1" vertex="1">
          <mxGeometry width="820" height="210" as="geometry" />
        </mxCell>
        <mxCell id="rCMdXfV7LYDpSBpJ9iVP-7" style="edgeStyle=orthogonalEdgeStyle;rounded=0;orthogonalLoop=1;jettySize=auto;html=1;endArrow=none;endFill=0;" parent="1" source="9602cSMnnvCsgzXfWvln-3" target="rCMdXfV7LYDpSBpJ9iVP-3" edge="1">
          <mxGeometry relative="1" as="geometry" />
        </mxCell>
        <mxCell id="9602cSMnnvCsgzXfWvln-13" style="edgeStyle=orthogonalEdgeStyle;rounded=0;orthogonalLoop=1;jettySize=auto;html=1;exitX=1;exitY=0.5;exitDx=0;exitDy=0;entryX=0;entryY=0.5;entryDx=0;entryDy=0;endArrow=none;endFill=0;" edge="1" parent="1" source="rCMdXfV7LYDpSBpJ9iVP-2" target="9602cSMnnvCsgzXfWvln-11">
          <mxGeometry relative="1" as="geometry" />
        </mxCell>
        <mxCell id="9602cSMnnvCsgzXfWvln-14" style="edgeStyle=orthogonalEdgeStyle;rounded=0;orthogonalLoop=1;jettySize=auto;html=1;exitX=1;exitY=0.5;exitDx=0;exitDy=0;entryX=0;entryY=0.5;entryDx=0;entryDy=0;endArrow=none;endFill=0;" edge="1" parent="1" source="rCMdXfV7LYDpSBpJ9iVP-2" target="9602cSMnnvCsgzXfWvln-10">
          <mxGeometry relative="1" as="geometry">
            <Array as="points">
              <mxPoint x="510" y="290" />
              <mxPoint x="510" y="245" />
            </Array>
          </mxGeometry>
        </mxCell>
        <mxCell id="9602cSMnnvCsgzXfWvln-15" style="edgeStyle=orthogonalEdgeStyle;rounded=0;orthogonalLoop=1;jettySize=auto;html=1;exitX=1;exitY=0.5;exitDx=0;exitDy=0;entryX=0;entryY=0.5;entryDx=0;entryDy=0;endArrow=none;endFill=0;" edge="1" parent="1" source="rCMdXfV7LYDpSBpJ9iVP-2" target="9602cSMnnvCsgzXfWvln-12">
          <mxGeometry relative="1" as="geometry">
            <Array as="points">
              <mxPoint x="510" y="290" />
              <mxPoint x="510" y="335" />
            </Array>
          </mxGeometry>
        </mxCell>
        <mxCell id="rCMdXfV7LYDpSBpJ9iVP-2" value="&lt;font style=&quot;font-size: 14px;&quot;&gt;Usuário&lt;/font&gt;" style="rounded=0;whiteSpace=wrap;html=1;" parent="1" vertex="1">
          <mxGeometry x="350" y="260" width="120" height="60" as="geometry" />
        </mxCell>
        <mxCell id="9602cSMnnvCsgzXfWvln-39" style="edgeStyle=orthogonalEdgeStyle;rounded=0;orthogonalLoop=1;jettySize=auto;html=1;exitX=1;exitY=0.5;exitDx=0;exitDy=0;entryX=0;entryY=0.5;entryDx=0;entryDy=0;endArrow=none;endFill=0;" edge="1" parent="1" source="rCMdXfV7LYDpSBpJ9iVP-3" target="9602cSMnnvCsgzXfWvln-38">
          <mxGeometry relative="1" as="geometry" />
        </mxCell>
        <mxCell id="9602cSMnnvCsgzXfWvln-49" style="edgeStyle=orthogonalEdgeStyle;rounded=0;orthogonalLoop=1;jettySize=auto;html=1;exitX=0.5;exitY=1;exitDx=0;exitDy=0;entryX=0;entryY=0.5;entryDx=0;entryDy=0;endArrow=none;endFill=0;" edge="1" parent="1" source="rCMdXfV7LYDpSBpJ9iVP-3" target="9602cSMnnvCsgzXfWvln-48">
          <mxGeometry relative="1" as="geometry" />
        </mxCell>
        <mxCell id="rCMdXfV7LYDpSBpJ9iVP-3" value="&lt;span style=&quot;font-size: 14px;&quot;&gt;SIte&lt;/span&gt;" style="rounded=0;whiteSpace=wrap;html=1;" parent="1" vertex="1">
          <mxGeometry x="350" y="460" width="120" height="60" as="geometry" />
        </mxCell>
        <mxCell id="rCMdXfV7LYDpSBpJ9iVP-9" style="edgeStyle=orthogonalEdgeStyle;rounded=0;orthogonalLoop=1;jettySize=auto;html=1;entryX=0;entryY=0.5;entryDx=0;entryDy=0;endArrow=none;endFill=0;" parent="1" source="9602cSMnnvCsgzXfWvln-6" target="rCMdXfV7LYDpSBpJ9iVP-5" edge="1">
          <mxGeometry relative="1" as="geometry" />
        </mxCell>
        <mxCell id="rCMdXfV7LYDpSBpJ9iVP-11" style="edgeStyle=orthogonalEdgeStyle;rounded=0;orthogonalLoop=1;jettySize=auto;html=1;exitX=0;exitY=0.5;exitDx=0;exitDy=0;entryX=1;entryY=0.5;entryDx=0;entryDy=0;endArrow=none;endFill=0;" parent="1" source="9602cSMnnvCsgzXfWvln-8" target="rCMdXfV7LYDpSBpJ9iVP-6" edge="1">
          <mxGeometry relative="1" as="geometry" />
        </mxCell>
        <mxCell id="9602cSMnnvCsgzXfWvln-35" style="edgeStyle=orthogonalEdgeStyle;rounded=0;orthogonalLoop=1;jettySize=auto;html=1;exitX=0.5;exitY=1;exitDx=0;exitDy=0;entryX=0.5;entryY=0;entryDx=0;entryDy=0;endArrow=none;endFill=0;" edge="1" parent="1" source="rCMdXfV7LYDpSBpJ9iVP-4" target="9602cSMnnvCsgzXfWvln-33">
          <mxGeometry relative="1" as="geometry">
            <Array as="points">
              <mxPoint x="600" y="770" />
              <mxPoint x="730" y="770" />
            </Array>
          </mxGeometry>
        </mxCell>
        <mxCell id="9602cSMnnvCsgzXfWvln-36" style="edgeStyle=orthogonalEdgeStyle;rounded=0;orthogonalLoop=1;jettySize=auto;html=1;exitX=0.5;exitY=1;exitDx=0;exitDy=0;entryX=0.5;entryY=0;entryDx=0;entryDy=0;endArrow=none;endFill=0;" edge="1" parent="1" source="rCMdXfV7LYDpSBpJ9iVP-4" target="9602cSMnnvCsgzXfWvln-28">
          <mxGeometry relative="1" as="geometry">
            <Array as="points">
              <mxPoint x="600" y="770" />
              <mxPoint x="470" y="770" />
            </Array>
          </mxGeometry>
        </mxCell>
        <mxCell id="9602cSMnnvCsgzXfWvln-68" style="edgeStyle=orthogonalEdgeStyle;rounded=0;orthogonalLoop=1;jettySize=auto;html=1;exitX=0.5;exitY=1;exitDx=0;exitDy=0;entryX=1;entryY=0;entryDx=0;entryDy=0;endArrow=none;endFill=0;" edge="1" parent="1" source="rCMdXfV7LYDpSBpJ9iVP-4" target="9602cSMnnvCsgzXfWvln-29">
          <mxGeometry relative="1" as="geometry">
            <Array as="points">
              <mxPoint x="600" y="770" />
              <mxPoint x="573" y="770" />
            </Array>
          </mxGeometry>
        </mxCell>
        <mxCell id="9602cSMnnvCsgzXfWvln-69" style="edgeStyle=orthogonalEdgeStyle;rounded=0;orthogonalLoop=1;jettySize=auto;html=1;exitX=0.5;exitY=1;exitDx=0;exitDy=0;entryX=0;entryY=0;entryDx=0;entryDy=0;endArrow=none;endFill=0;" edge="1" parent="1" source="rCMdXfV7LYDpSBpJ9iVP-4" target="9602cSMnnvCsgzXfWvln-65">
          <mxGeometry relative="1" as="geometry">
            <Array as="points">
              <mxPoint x="600" y="770" />
              <mxPoint x="627" y="770" />
            </Array>
          </mxGeometry>
        </mxCell>
        <mxCell id="9602cSMnnvCsgzXfWvln-79" style="edgeStyle=orthogonalEdgeStyle;rounded=0;orthogonalLoop=1;jettySize=auto;html=1;exitX=0.5;exitY=1;exitDx=0;exitDy=0;entryX=0.5;entryY=0;entryDx=0;entryDy=0;endArrow=none;endFill=0;" edge="1" parent="1" source="rCMdXfV7LYDpSBpJ9iVP-4" target="9602cSMnnvCsgzXfWvln-78">
          <mxGeometry relative="1" as="geometry" />
        </mxCell>
        <mxCell id="rCMdXfV7LYDpSBpJ9iVP-4" value="&lt;font style=&quot;font-size: 14px;&quot;&gt;Álbum&lt;/font&gt;" style="rounded=0;whiteSpace=wrap;html=1;" parent="1" vertex="1">
          <mxGeometry x="540" y="660" width="120" height="60" as="geometry" />
        </mxCell>
        <mxCell id="9602cSMnnvCsgzXfWvln-27" style="edgeStyle=orthogonalEdgeStyle;rounded=0;orthogonalLoop=1;jettySize=auto;html=1;exitX=0.5;exitY=1;exitDx=0;exitDy=0;entryX=0.5;entryY=0;entryDx=0;entryDy=0;endArrow=none;endFill=0;" edge="1" parent="1" source="rCMdXfV7LYDpSBpJ9iVP-5" target="9602cSMnnvCsgzXfWvln-26">
          <mxGeometry relative="1" as="geometry" />
        </mxCell>
        <mxCell id="rCMdXfV7LYDpSBpJ9iVP-5" value="&lt;font style=&quot;font-size: 14px;&quot;&gt;Estilo&lt;/font&gt;" style="rounded=0;whiteSpace=wrap;html=1;" parent="1" vertex="1">
          <mxGeometry x="820" y="660" width="120" height="60" as="geometry" />
        </mxCell>
        <mxCell id="rCMdXfV7LYDpSBpJ9iVP-6" value="&lt;font style=&quot;font-size: 14px;&quot;&gt;Artista&lt;/font&gt;" style="rounded=0;whiteSpace=wrap;html=1;" parent="1" vertex="1">
          <mxGeometry x="260" y="660" width="120" height="60" as="geometry" />
        </mxCell>
        <mxCell id="9602cSMnnvCsgzXfWvln-2" value="" style="edgeStyle=orthogonalEdgeStyle;rounded=0;orthogonalLoop=1;jettySize=auto;html=1;endArrow=none;endFill=0;" edge="1" parent="1" source="rCMdXfV7LYDpSBpJ9iVP-2">
          <mxGeometry relative="1" as="geometry">
            <mxPoint x="410" y="320" as="sourcePoint" />
            <mxPoint x="410" y="360" as="targetPoint" />
          </mxGeometry>
        </mxCell>
        <mxCell id="9602cSMnnvCsgzXfWvln-3" value="&lt;font style=&quot;font-size: 14px;&quot;&gt;Acessa&lt;/font&gt;" style="rhombus;whiteSpace=wrap;html=1;" vertex="1" parent="1">
          <mxGeometry x="370" y="350" width="80" height="80" as="geometry" />
        </mxCell>
        <mxCell id="9602cSMnnvCsgzXfWvln-53" style="edgeStyle=orthogonalEdgeStyle;rounded=0;orthogonalLoop=1;jettySize=auto;html=1;exitX=0.5;exitY=1;exitDx=0;exitDy=0;entryX=1;entryY=0;entryDx=0;entryDy=0;endArrow=none;endFill=0;" edge="1" parent="1" source="9602cSMnnvCsgzXfWvln-4" target="rCMdXfV7LYDpSBpJ9iVP-4">
          <mxGeometry relative="1" as="geometry" />
        </mxCell>
        <mxCell id="9602cSMnnvCsgzXfWvln-4" value="&lt;font style=&quot;font-size: 14px;&quot;&gt;Gerencia&lt;/font&gt;" style="rhombus;whiteSpace=wrap;html=1;" vertex="1" parent="1">
          <mxGeometry x="660" y="560" width="80" height="80" as="geometry" />
        </mxCell>
        <mxCell id="9602cSMnnvCsgzXfWvln-7" value="" style="edgeStyle=orthogonalEdgeStyle;rounded=0;orthogonalLoop=1;jettySize=auto;html=1;entryX=0;entryY=0.5;entryDx=0;entryDy=0;endArrow=none;endFill=0;" edge="1" parent="1" source="rCMdXfV7LYDpSBpJ9iVP-4" target="9602cSMnnvCsgzXfWvln-6">
          <mxGeometry relative="1" as="geometry">
            <mxPoint x="660" y="690" as="sourcePoint" />
            <mxPoint x="820" y="690" as="targetPoint" />
          </mxGeometry>
        </mxCell>
        <mxCell id="9602cSMnnvCsgzXfWvln-6" value="&lt;font style=&quot;font-size: 14px;&quot;&gt;Possui&lt;/font&gt;" style="rhombus;whiteSpace=wrap;html=1;" vertex="1" parent="1">
          <mxGeometry x="700" y="650" width="80" height="80" as="geometry" />
        </mxCell>
        <mxCell id="9602cSMnnvCsgzXfWvln-9" value="" style="edgeStyle=orthogonalEdgeStyle;rounded=0;orthogonalLoop=1;jettySize=auto;html=1;exitX=0;exitY=0.5;exitDx=0;exitDy=0;entryX=1;entryY=0.5;entryDx=0;entryDy=0;endArrow=none;endFill=0;" edge="1" parent="1" source="rCMdXfV7LYDpSBpJ9iVP-4" target="9602cSMnnvCsgzXfWvln-8">
          <mxGeometry relative="1" as="geometry">
            <mxPoint x="540" y="690" as="sourcePoint" />
            <mxPoint x="430" y="690" as="targetPoint" />
          </mxGeometry>
        </mxCell>
        <mxCell id="9602cSMnnvCsgzXfWvln-8" value="&lt;font style=&quot;font-size: 14px;&quot;&gt;Possui&lt;/font&gt;" style="rhombus;whiteSpace=wrap;html=1;" vertex="1" parent="1">
          <mxGeometry x="420" y="650" width="80" height="80" as="geometry" />
        </mxCell>
        <mxCell id="9602cSMnnvCsgzXfWvln-10" value="&lt;font style=&quot;font-size: 14px;&quot;&gt;Nome&lt;/font&gt;" style="ellipse;whiteSpace=wrap;html=1;" vertex="1" parent="1">
          <mxGeometry x="540" y="230" width="120" height="30" as="geometry" />
        </mxCell>
        <mxCell id="9602cSMnnvCsgzXfWvln-11" value="&lt;font style=&quot;font-size: 14px;&quot;&gt;Email&lt;/font&gt;" style="ellipse;whiteSpace=wrap;html=1;" vertex="1" parent="1">
          <mxGeometry x="540" y="275" width="120" height="30" as="geometry" />
        </mxCell>
        <mxCell id="9602cSMnnvCsgzXfWvln-12" value="&lt;font style=&quot;font-size: 14px;&quot;&gt;Senha&lt;/font&gt;" style="ellipse;whiteSpace=wrap;html=1;" vertex="1" parent="1">
          <mxGeometry x="540" y="320" width="120" height="30" as="geometry" />
        </mxCell>
        <mxCell id="9602cSMnnvCsgzXfWvln-16" style="edgeStyle=orthogonalEdgeStyle;rounded=0;orthogonalLoop=1;jettySize=auto;html=1;exitX=0.5;exitY=1;exitDx=0;exitDy=0;" edge="1" parent="1" source="9602cSMnnvCsgzXfWvln-12" target="9602cSMnnvCsgzXfWvln-12">
          <mxGeometry relative="1" as="geometry" />
        </mxCell>
        <mxCell id="9602cSMnnvCsgzXfWvln-19" value="&lt;font style=&quot;font-size: 14px;&quot;&gt;Contatos&lt;/font&gt;" style="ellipse;whiteSpace=wrap;html=1;" vertex="1" parent="1">
          <mxGeometry x="800" y="500" width="120" height="30" as="geometry" />
        </mxCell>
        <mxCell id="9602cSMnnvCsgzXfWvln-20" value="&lt;font style=&quot;font-size: 14px;&quot;&gt;Nome&lt;/font&gt;" style="ellipse;whiteSpace=wrap;html=1;" vertex="1" parent="1">
          <mxGeometry x="800" y="450" width="120" height="30" as="geometry" />
        </mxCell>
        <mxCell id="9602cSMnnvCsgzXfWvln-25" style="edgeStyle=orthogonalEdgeStyle;rounded=0;orthogonalLoop=1;jettySize=auto;html=1;exitX=0.5;exitY=0;exitDx=0;exitDy=0;entryX=0.5;entryY=1;entryDx=0;entryDy=0;endArrow=none;endFill=0;" edge="1" parent="1" source="9602cSMnnvCsgzXfWvln-24" target="rCMdXfV7LYDpSBpJ9iVP-6">
          <mxGeometry relative="1" as="geometry" />
        </mxCell>
        <mxCell id="9602cSMnnvCsgzXfWvln-24" value="&lt;font style=&quot;font-size: 14px;&quot;&gt;Nome&lt;/font&gt;" style="ellipse;whiteSpace=wrap;html=1;" vertex="1" parent="1">
          <mxGeometry x="260" y="740" width="120" height="30" as="geometry" />
        </mxCell>
        <mxCell id="9602cSMnnvCsgzXfWvln-26" value="&lt;font style=&quot;font-size: 14px;&quot;&gt;Nome&lt;/font&gt;" style="ellipse;whiteSpace=wrap;html=1;" vertex="1" parent="1">
          <mxGeometry x="820" y="740" width="120" height="30" as="geometry" />
        </mxCell>
        <mxCell id="9602cSMnnvCsgzXfWvln-28" value="&lt;font style=&quot;font-size: 14px;&quot;&gt;Título&lt;/font&gt;" style="ellipse;whiteSpace=wrap;html=1;" vertex="1" parent="1">
          <mxGeometry x="410" y="830" width="120" height="30" as="geometry" />
        </mxCell>
        <mxCell id="9602cSMnnvCsgzXfWvln-29" value="&lt;font style=&quot;font-size: 14px;&quot;&gt;Lançamento&lt;/font&gt;" style="ellipse;whiteSpace=wrap;html=1;" vertex="1" parent="1">
          <mxGeometry x="430" y="870" width="120" height="30" as="geometry" />
        </mxCell>
        <mxCell id="9602cSMnnvCsgzXfWvln-33" value="&lt;font style=&quot;font-size: 14px;&quot;&gt;Duração&lt;/font&gt;" style="ellipse;whiteSpace=wrap;html=1;" vertex="1" parent="1">
          <mxGeometry x="670" y="830" width="120" height="30" as="geometry" />
        </mxCell>
        <mxCell id="9602cSMnnvCsgzXfWvln-40" style="edgeStyle=orthogonalEdgeStyle;rounded=0;orthogonalLoop=1;jettySize=auto;html=1;exitX=0;exitY=0.5;exitDx=0;exitDy=0;entryX=1;entryY=0.5;entryDx=0;entryDy=0;endArrow=none;endFill=0;" edge="1" parent="1" source="9602cSMnnvCsgzXfWvln-37" target="9602cSMnnvCsgzXfWvln-38">
          <mxGeometry relative="1" as="geometry" />
        </mxCell>
        <mxCell id="9602cSMnnvCsgzXfWvln-41" style="edgeStyle=orthogonalEdgeStyle;rounded=0;orthogonalLoop=1;jettySize=auto;html=1;exitX=1;exitY=0.5;exitDx=0;exitDy=0;entryX=0;entryY=0.5;entryDx=0;entryDy=0;endArrow=none;endFill=0;" edge="1" parent="1" source="9602cSMnnvCsgzXfWvln-37" target="9602cSMnnvCsgzXfWvln-20">
          <mxGeometry relative="1" as="geometry" />
        </mxCell>
        <mxCell id="9602cSMnnvCsgzXfWvln-42" style="edgeStyle=orthogonalEdgeStyle;rounded=0;orthogonalLoop=1;jettySize=auto;html=1;exitX=1;exitY=0.5;exitDx=0;exitDy=0;entryX=0;entryY=0.5;entryDx=0;entryDy=0;endArrow=none;endFill=0;" edge="1" parent="1" source="9602cSMnnvCsgzXfWvln-37" target="9602cSMnnvCsgzXfWvln-19">
          <mxGeometry relative="1" as="geometry" />
        </mxCell>
        <mxCell id="9602cSMnnvCsgzXfWvln-52" style="edgeStyle=orthogonalEdgeStyle;rounded=0;orthogonalLoop=1;jettySize=auto;html=1;exitX=0.5;exitY=1;exitDx=0;exitDy=0;entryX=0.5;entryY=0;entryDx=0;entryDy=0;endArrow=none;endFill=0;" edge="1" parent="1" source="9602cSMnnvCsgzXfWvln-37" target="9602cSMnnvCsgzXfWvln-4">
          <mxGeometry relative="1" as="geometry" />
        </mxCell>
        <mxCell id="9602cSMnnvCsgzXfWvln-37" value="&lt;span style=&quot;font-size: 14px;&quot;&gt;Empresa&lt;/span&gt;" style="rounded=0;whiteSpace=wrap;html=1;" vertex="1" parent="1">
          <mxGeometry x="640" y="460" width="120" height="60" as="geometry" />
        </mxCell>
        <mxCell id="9602cSMnnvCsgzXfWvln-38" value="&lt;font style=&quot;font-size: 14px;&quot;&gt;Possui&lt;/font&gt;" style="rhombus;whiteSpace=wrap;html=1;" vertex="1" parent="1">
          <mxGeometry x="520" y="450" width="80" height="80" as="geometry" />
        </mxCell>
        <mxCell id="9602cSMnnvCsgzXfWvln-51" style="edgeStyle=orthogonalEdgeStyle;rounded=0;orthogonalLoop=1;jettySize=auto;html=1;exitX=1;exitY=0.5;exitDx=0;exitDy=0;entryX=0;entryY=0;entryDx=0;entryDy=0;endArrow=none;endFill=0;" edge="1" parent="1" source="9602cSMnnvCsgzXfWvln-48" target="rCMdXfV7LYDpSBpJ9iVP-4">
          <mxGeometry relative="1" as="geometry" />
        </mxCell>
        <mxCell id="9602cSMnnvCsgzXfWvln-48" value="&lt;font style=&quot;font-size: 12px;&quot;&gt;Disponibiliza&lt;/font&gt;" style="rhombus;whiteSpace=wrap;html=1;" vertex="1" parent="1">
          <mxGeometry x="430" y="560" width="80" height="80" as="geometry" />
        </mxCell>
        <mxCell id="9602cSMnnvCsgzXfWvln-55" style="edgeStyle=orthogonalEdgeStyle;rounded=0;orthogonalLoop=1;jettySize=auto;html=1;exitX=1;exitY=0.5;exitDx=0;exitDy=0;entryX=0;entryY=0.5;entryDx=0;entryDy=0;endArrow=none;endFill=0;" edge="1" parent="1" target="rCMdXfV7LYDpSBpJ9iVP-2">
          <mxGeometry relative="1" as="geometry">
            <mxPoint x="310" y="290" as="sourcePoint" />
          </mxGeometry>
        </mxCell>
        <mxCell id="9602cSMnnvCsgzXfWvln-56" value="&lt;font style=&quot;font-size: 14px;&quot;&gt;N&lt;/font&gt;" style="text;html=1;align=center;verticalAlign=middle;resizable=0;points=[];autosize=1;strokeColor=none;fillColor=none;" vertex="1" parent="1">
          <mxGeometry x="380" y="430" width="30" height="30" as="geometry" />
        </mxCell>
        <mxCell id="9602cSMnnvCsgzXfWvln-57" value="&lt;font style=&quot;font-size: 14px;&quot;&gt;N&lt;/font&gt;" style="text;html=1;align=center;verticalAlign=middle;resizable=0;points=[];autosize=1;strokeColor=none;fillColor=none;" vertex="1" parent="1">
          <mxGeometry x="380" y="320" width="30" height="30" as="geometry" />
        </mxCell>
        <mxCell id="9602cSMnnvCsgzXfWvln-60" style="edgeStyle=orthogonalEdgeStyle;rounded=0;orthogonalLoop=1;jettySize=auto;html=1;exitX=1;exitY=0.5;exitDx=0;exitDy=0;entryX=0;entryY=0.5;entryDx=0;entryDy=0;endArrow=none;endFill=0;" edge="1" parent="1" source="9602cSMnnvCsgzXfWvln-58" target="9602cSMnnvCsgzXfWvln-59">
          <mxGeometry relative="1" as="geometry" />
        </mxCell>
        <mxCell id="9602cSMnnvCsgzXfWvln-58" value="&lt;font style=&quot;font-size: 14px;&quot;&gt;Tipo de Permissão&lt;/font&gt;" style="rounded=0;whiteSpace=wrap;html=1;" vertex="1" parent="1">
          <mxGeometry x="70" y="260" width="120" height="60" as="geometry" />
        </mxCell>
        <mxCell id="9602cSMnnvCsgzXfWvln-59" value="&lt;font style=&quot;font-size: 14px;&quot;&gt;Possui&lt;/font&gt;" style="rhombus;whiteSpace=wrap;html=1;" vertex="1" parent="1">
          <mxGeometry x="230" y="250" width="80" height="80" as="geometry" />
        </mxCell>
        <mxCell id="9602cSMnnvCsgzXfWvln-63" value="&lt;font style=&quot;font-size: 14px;&quot;&gt;(1...N)&lt;/font&gt;" style="text;html=1;align=center;verticalAlign=middle;resizable=0;points=[];autosize=1;strokeColor=none;fillColor=none;" vertex="1" parent="1">
          <mxGeometry x="240" y="330" width="60" height="30" as="geometry" />
        </mxCell>
        <mxCell id="9602cSMnnvCsgzXfWvln-64" value="&lt;font style=&quot;font-size: 14px;&quot;&gt;(1...1)&lt;/font&gt;" style="text;html=1;align=center;verticalAlign=middle;resizable=0;points=[];autosize=1;strokeColor=none;fillColor=none;" vertex="1" parent="1">
          <mxGeometry x="530" y="420" width="60" height="30" as="geometry" />
        </mxCell>
        <mxCell id="9602cSMnnvCsgzXfWvln-65" value="&lt;font style=&quot;font-size: 14px;&quot;&gt;Localização&lt;/font&gt;" style="ellipse;whiteSpace=wrap;html=1;" vertex="1" parent="1">
          <mxGeometry x="650" y="870" width="120" height="30" as="geometry" />
        </mxCell>
        <mxCell id="9602cSMnnvCsgzXfWvln-70" value="&lt;font style=&quot;font-size: 14px;&quot;&gt;1&lt;/font&gt;" style="text;html=1;align=center;verticalAlign=middle;resizable=0;points=[];autosize=1;strokeColor=none;fillColor=none;" vertex="1" parent="1">
          <mxGeometry x="670" y="520" width="30" height="30" as="geometry" />
        </mxCell>
        <mxCell id="9602cSMnnvCsgzXfWvln-71" value="&lt;font style=&quot;font-size: 14px;&quot;&gt;N&lt;/font&gt;" style="text;html=1;align=center;verticalAlign=middle;resizable=0;points=[];autosize=1;strokeColor=none;fillColor=none;" vertex="1" parent="1">
          <mxGeometry x="630" y="630" width="30" height="30" as="geometry" />
        </mxCell>
        <mxCell id="9602cSMnnvCsgzXfWvln-72" value="&lt;font style=&quot;font-size: 14px;&quot;&gt;N&lt;/font&gt;" style="text;html=1;align=center;verticalAlign=middle;resizable=0;points=[];autosize=1;strokeColor=none;fillColor=none;" vertex="1" parent="1">
          <mxGeometry x="540" y="630" width="30" height="30" as="geometry" />
        </mxCell>
        <mxCell id="9602cSMnnvCsgzXfWvln-73" value="&lt;font style=&quot;font-size: 14px;&quot;&gt;1&lt;/font&gt;" style="text;html=1;align=center;verticalAlign=middle;resizable=0;points=[];autosize=1;strokeColor=none;fillColor=none;" vertex="1" parent="1">
          <mxGeometry x="410" y="520" width="30" height="30" as="geometry" />
        </mxCell>
        <mxCell id="9602cSMnnvCsgzXfWvln-74" value="&lt;font style=&quot;font-size: 14px;&quot;&gt;(1...N)&lt;/font&gt;" style="text;html=1;align=center;verticalAlign=middle;resizable=0;points=[];autosize=1;strokeColor=none;fillColor=none;" vertex="1" parent="1">
          <mxGeometry x="430" y="730" width="60" height="30" as="geometry" />
        </mxCell>
        <mxCell id="9602cSMnnvCsgzXfWvln-75" value="&lt;font style=&quot;font-size: 14px;&quot;&gt;(N...N)&lt;/font&gt;" style="text;html=1;align=center;verticalAlign=middle;resizable=0;points=[];autosize=1;strokeColor=none;fillColor=none;" vertex="1" parent="1">
          <mxGeometry x="710" y="730" width="60" height="30" as="geometry" />
        </mxCell>
        <mxCell id="9602cSMnnvCsgzXfWvln-78" value="&lt;font style=&quot;font-size: 14px;&quot;&gt;Ativo&lt;/font&gt;" style="ellipse;whiteSpace=wrap;html=1;" vertex="1" parent="1">
          <mxGeometry x="540" y="890" width="120" height="30" as="geometry" />
        </mxCell>
      </root>
    </mxGraphModel>
  </diagram>
</mxfile>
